<?xml version="1.0" encoding="iso-8859-1"?>
<!-- Generator: Adobe Illustrator 19.0.0, SVG Export Plug-In . SVG Version: 6.00 Build 0)  -->
<svg version="1.1" id="Layer_1" xmlns="http://www.w3.org/2000/svg" xmlns:xlink="http://www.w3.org/1999/xlink" x="0px" y="0px"
	 viewBox="0 0 512 512" style="enable-background:new 0 0 512 512;" xml:space="preserve">
<g>
	<path style="fill:#460929;" d="M238.422,491.042L228.828,308.3l-17.679,0.929l9.24,175.988l0.338,0.109l-25.666,9.414
		c-4.643,1.531-7.165,6.536-5.635,11.179c1.531,4.644,6.536,7.164,11.18,5.635l31.736-11.64
		C236.22,498.633,238.61,494.927,238.422,491.042z"/>
	<path style="fill:#460929;" d="M273.581,491.042l9.594-182.742l17.679,0.929l-9.24,175.988l-0.338,0.109l25.666,9.414
		c4.643,1.531,7.165,6.536,5.635,11.179c-1.531,4.644-6.536,7.164-11.18,5.635l-31.736-11.64
		C275.784,498.633,273.393,494.927,273.581,491.042z"/>
	<path style="fill:#460929;" d="M255.99,0c-44.496,0-80.695,36.211-80.695,80.719v192.585h31.029h99.355h31.029V80.719
		C336.709,36.211,300.498,0,255.99,0z"/>
</g>
<path style="fill:#5C4853;" d="M411.249,81.711c-4.883-0.53-9.231,2.979-9.762,7.838c-2.729,24.97-15.019,47.382-34.604,63.107
	c-19.585,15.725-44.12,22.888-69.093,20.153h-83.576c-51.541,5.638-98.063-31.716-103.699-83.26
	c-0.531-4.859-4.903-8.356-9.762-7.838c-4.86,0.531-8.369,4.902-7.838,9.762c6.246,57.143,54.776,99.605,110.995,99.603
	l104.31,0.008c25.324,0,49.714-8.54,69.745-24.624c23.274-18.686,37.877-45.318,41.121-74.986
	C419.617,86.614,416.109,82.242,411.249,81.711z"/>
<path style="fill:#FFFFFF;" d="M307.202,80.719c0,28.279-22.921,51.188-51.212,51.188c-28.267,0-51.188-22.909-51.188-51.188
	c28.291-0.012,51.188-22.921,51.188-51.212C255.99,57.81,278.899,80.719,307.202,80.719z"/>
<g>
	<path style="fill:#AB899B;" d="M204.78,80.716c0.02,17.287,8.592,32.554,21.705,41.822c13.123-9.27,21.698-24.547,21.698-41.832
		c0-6.691-1.296-13.076-3.627-18.935C235.169,73.33,220.848,80.716,204.78,80.716z"/>
	<path style="fill:#AB899B;" d="M267.433,61.774c-2.333,5.859-3.631,12.242-3.631,18.932c0,17.294,8.572,32.573,21.693,41.846
		c13.128-9.266,21.71-24.54,21.711-41.837C291.14,80.716,276.819,73.331,267.433,61.774z"/>
</g>
<path style="fill:#5C4853;" d="M285.804,161.728H226.2c-10.934,0-19.879,8.945-19.879,19.879v115.299l49.681,23.605l49.681-23.605
	V181.607C305.683,170.672,296.738,161.728,285.804,161.728z"/>
<path style="fill:#460929;" d="M206.321,296.906c0,27.439,22.243,49.681,49.681,49.681c27.438,0,49.681-22.243,49.681-49.681
	H206.321z"/>
<path style="fill:#AB899B;" d="M270.272,240.539h-5.417v-43.403c0-4.889-3.963-8.852-8.852-8.852c-4.889,0-8.852,3.963-8.852,8.852
	v43.403h-5.417c-4.889,0-8.852,3.963-8.852,8.852c0,4.889,3.963,8.852,8.852,8.852h5.417v7.672c0,4.889,3.963,8.852,8.852,8.852
	c4.889,0,8.852-3.963,8.852-8.852v-7.672h5.417c4.889,0,8.852-3.963,8.852-8.852C279.124,244.502,275.16,240.539,270.272,240.539z"
	/>
<g>
</g>
<g>
</g>
<g>
</g>
<g>
</g>
<g>
</g>
<g>
</g>
<g>
</g>
<g>
</g>
<g>
</g>
<g>
</g>
<g>
</g>
<g>
</g>
<g>
</g>
<g>
</g>
<g>
</g>
</svg>
